<?xml version="1.0" encoding="UTF-8"?>
<svg id="Laag_1" data-name="Laag 1" xmlns="http://www.w3.org/2000/svg" viewBox="0 0 200 200">
  <defs>
    <style>
      .cls-1 {
        fill: #20abad;
      }

      .cls-1, .cls-2 {
        stroke-width: 0px;
      }

      .cls-2 {
        fill: #fff;
      }
    </style>
  </defs>
  <rect class="cls-1" width="200" height="200"/>
  <g>
    <path class="cls-2" d="M100.27,97.09c-4.29,0-6.98,2.33-6.98,8.45v15.44c0,6.13,2.69,8.33,6.98,8.33s6.98-2.21,6.98-8.33v-15.44c0-6.13-2.7-8.45-6.98-8.45Z"/>
    <path class="cls-2" d="M100.03,19.6c-44.18,0-80,35.82-80,80s35.82,80,80,80,80-35.82,80-80S144.21,19.6,100.03,19.6ZM120.73,120.12c0,13.72-7.23,21.56-20.46,21.56s-20.46-7.84-20.46-21.56v-43.86c0-14.46,6.62-22.3,20.58-22.3,13.23,0,20.09,7.84,20.09,21.56v2.21h-12.74v-3.06c0-6.13-2.69-8.45-6.98-8.45-4.78,0-7.47,2.33-7.47,10.54v15.68c2.33-4.9,6.49-7.6,12.5-7.6,9.92,0,14.95,6.98,14.95,19.6v15.68Z"/>
  </g>
</svg>