<?xml version="1.0" encoding="UTF-8"?><svg id="Layer_2" xmlns="http://www.w3.org/2000/svg" viewBox="0 0 800 800"><defs><style>.cls-1{fill:#fff;}.cls-2{fill:#3a4b4d;}</style></defs><g id="Layer_1-2"><rect class="cls-2" width="800" height="800"/><path class="cls-1" d="M478.66,410.04c-19.11,0-30.38,11.76-30.38,38.71v31.86c0,30.39,13.23,38.72,30.38,38.72s29.9-8.33,30.38-38.72v-31.86c0-26.95-11.27-38.71-30.38-38.71Z"/><path class="cls-1" d="M478.66,266.44c-17.15,0-30.38,8.33-30.38,39.21v19.11c0,27.45,12.74,36.26,30.38,36.26s30.38-8.82,30.38-36.26v-19.11c0-30.87-13.23-39.21-30.38-39.21Z"/><path class="cls-1" d="M400,80c-176.73,0-320,143.27-320,320s143.27,320,320,320,320-143.27,320-320S576.73,80,400,80ZM336.06,564.41h-53.91v-261.7h-41.66v-38.23c41.66,0,50.97-20.09,59.3-43.13h36.27v343.05ZM562.95,314.47c0,33.81-11.27,56.85-33.32,69.1,23.52,13.23,33.32,38.72,33.32,71.55v26.96c0,54.89-29.89,86.25-84.29,86.25s-84.29-31.36-84.29-86.25v-26.96c0-32.83,9.8-58.31,33.32-71.55-22.54-12.25-33.32-35.29-33.32-69.1v-10.78c0-54.89,29.89-86.26,84.29-86.26s84.29,31.36,84.29,86.26v10.78Z"/></g></svg>