<?xml version="1.0" encoding="UTF-8"?>
<svg id="Laag_1" data-name="Laag 1" xmlns="http://www.w3.org/2000/svg" viewBox="0 0 200 200">
  <defs>
    <style>
      .cls-1 {
        fill: #17898a;
      }

      .cls-1, .cls-2 {
        stroke-width: 0px;
      }

      .cls-2 {
        fill: #fff;
      }
    </style>
  </defs>
  <rect class="cls-1" width="200" height="200"/>
  <path class="cls-2" d="M126.95,75.02v46.52c0,6.15-2.71,8.49-7.02,8.49s-7.02-2.34-7.02-8.49v-46.52c0-6.15,2.71-8.49,7.02-8.49s7.02,2.34,7.02,8.49ZM180,100c0,44.18-35.82,80-80,80S20,144.18,20,100,55.82,20,100,20s80,35.82,80,80ZM84.12,55.2h-9.11c-2.09,5.79-4.43,10.83-14.89,10.83v9.6h10.46v65.73h13.54V55.2ZM140.49,75.88c0-13.78-7.26-21.66-20.55-21.66s-20.55,7.88-20.55,21.66v44.8c0,13.79,7.26,21.66,20.55,21.66s20.55-7.88,20.55-21.66v-44.8Z"/>
</svg>