<?xml version="1.0" encoding="UTF-8"?>
<svg id="Laag_1" data-name="Laag 1" xmlns="http://www.w3.org/2000/svg" viewBox="0 0 200 200">
  <defs>
    <style>
      .cls-1 {
        fill: #226976;
      }

      .cls-1, .cls-2 {
        stroke-width: 0px;
      }

      .cls-2 {
        fill: #fff;
      }
    </style>
  </defs>
  <rect class="cls-1" width="200" height="200"/>
  <path class="cls-2" d="M100,20c-44.18,0-80,35.82-80,80s35.82,80,80,80,80-35.82,80-80S144.18,20,100,20ZM84.01,141.1h-13.48v-65.43h-10.41v-9.56c10.41,0,12.74-5.02,14.82-10.78h9.07v85.76ZM113.78,128.85h25.48v12.25h-38.96v-10.54c0-25.24,26.71-29.4,26.71-54.15,0-7.72-2.7-9.8-6.98-9.8s-6.98,2.33-6.98,8.45v9.19h-12.74v-8.33c0-13.72,6.86-21.56,20.09-21.56s20.09,7.84,20.09,21.56c0,26.95-26.83,37-26.83,51.09,0,.61,0,1.22.12,1.84Z"/>
</svg>