<?xml version="1.0" encoding="UTF-8"?>
<svg id="Laag_1" data-name="Laag 1" xmlns="http://www.w3.org/2000/svg" viewBox="0 0 200 200">
  <defs>
    <style>
      .cls-1 {
        fill: #ff2c46;
      }

      .cls-1, .cls-2 {
        stroke-width: 0px;
      }

      .cls-2 {
        fill: #fff;
      }
    </style>
  </defs>
  <rect class="cls-1" width="200" height="200"/>
  <g>
    <path class="cls-2" d="M93.86,60.83c0-7.26-4.86-13.15-10.87-13.15s-10.87,5.89-10.87,13.15,4.86,13.15,10.87,13.15,10.87-5.89,10.87-13.15Z"/>
    <path class="cls-2" d="M100,82.32c-6.52,0-11.8,5.28-11.8,11.8v22.61c0,6.52,5.28,11.8,11.8,11.8s11.8-5.28,11.8-11.8v-22.61c0-6.52-5.28-11.8-11.8-11.8Z"/>
    <path class="cls-2" d="M117,47.68c-6,0-10.87,5.89-10.87,13.15s4.86,13.15,10.87,13.15,10.87-5.89,10.87-13.15-4.86-13.15-10.87-13.15Z"/>
    <path class="cls-2" d="M100,20c-44.18,0-80,35.82-80,80s35.82,80,80,80,80-35.82,80-80S144.18,20,100,20ZM74.1,158.32c-1.03,1.45-2.56,2.41-4.32,2.71-3.63.62-7.06-1.83-7.68-5.45l-8.79-51.87c-.3-1.75.11-3.52,1.14-4.97,1.03-1.45,2.56-2.41,4.32-2.71.38-.06.75-.1,1.13-.1,1.37,0,2.7.42,3.84,1.23,1.45,1.03,2.41,2.56,2.71,4.32l8.79,51.87c.3,1.75-.11,3.52-1.14,4.97ZM149.16,103.71l-8.79,51.87c-.3,1.75-1.26,3.29-2.71,4.32-1.45,1.03-3.21,1.44-4.97,1.14-3.62-.61-6.06-4.06-5.45-7.68l8.79-51.87c.55-3.24,3.37-5.55,6.56-5.55.37,0,.74.03,1.12.09,3.62.61,6.06,4.06,5.45,7.68ZM155.05,93.7c-2.27-3.18-5.75-5.5-9.9-6.2-8.32-1.41-16.25,4.21-17.66,12.54l-7.1,41.88c-6.31,2.52-13.19,3.93-20.4,3.93-6.21,0-12.18-1.04-17.75-2.93l-7.27-42.88c-.68-4.03-2.9-7.56-6.23-9.93-3.34-2.37-7.39-3.3-11.43-2.61-4.03.68-7.56,2.9-9.93,6.23-.91,1.27-1.6,2.65-2.07,4.1-.3-2.33-.47-4.7-.47-7.12,0-30.46,24.69-55.14,55.14-55.14s55.14,24.69,55.14,55.14c0,1-.04,2-.09,2.99Z"/>
  </g>
</svg>