<?xml version="1.0" encoding="UTF-8"?>
<svg id="Laag_1" data-name="Laag 1" xmlns="http://www.w3.org/2000/svg" viewBox="0 0 200 200">
  <defs>
    <style>
      .cls-1 {
        fill: #ff8f64;
      }

      .cls-1, .cls-2 {
        stroke-width: 0px;
      }

      .cls-2 {
        fill: #fff;
      }
    </style>
  </defs>
  <rect class="cls-1" width="200" height="200"/>
  <g>
    <path class="cls-2" d="M150.18,77.4c1.52.35,3.08.08,4.4-.75,1.32-.83,2.24-2.12,2.58-3.64.35-1.52.08-3.08-.75-4.4-.83-1.32-2.12-2.24-3.64-2.58-.44-.1-.88-.15-1.31-.15-1.08,0-2.15.3-3.09.89-1.32.83-2.24,2.12-2.58,3.64-.35,1.52-.08,3.08.75,4.4.83,1.32,2.12,2.24,3.64,2.58Z"/>
    <path class="cls-2" d="M100,20c-44.18,0-80,35.82-80,80s35.82,80,80,80,80-35.82,80-80S144.18,20,100,20ZM141.55,69.44c.61-2.65,2.21-4.91,4.51-6.36,2.3-1.45,5.03-1.91,7.69-1.3,2.65.61,4.91,2.21,6.36,4.52,1.45,2.3,1.91,5.03,1.3,7.69-.61,2.65-2.21,4.91-4.52,6.36-1.64,1.03-3.5,1.56-5.4,1.56-.76,0-1.53-.09-2.29-.26-2.65-.61-4.91-2.21-6.36-4.51-1.45-2.3-1.91-5.04-1.3-7.69ZM85.5,46.4c5.82,0,10.56,4.74,10.56,10.56s-4.74,10.56-10.56,10.56-10.56-4.74-10.56-10.56,4.74-10.56,10.56-10.56ZM59.05,52.33c6.45,0,11.7,5.25,11.7,11.7s-5.25,11.7-11.7,11.7-11.7-5.25-11.7-11.7,5.25-11.7,11.7-11.7ZM120.63,99.28l-5.89,7.3c-.34.42-.83.68-1.36.72-.54.04-1.06-.14-1.46-.5l-15.82-14.46v57.6c0,1.07-.87,1.94-1.94,1.94h-17.34c-1.07,0-1.94-.87-1.94-1.94v-30.91c-.24.11-.51.17-.79.17h-4.14v30.83c0,1.07-.87,1.94-1.94,1.94h-19.62c-1.07,0-1.94-.87-1.94-1.94v-30.83h-4.14c-1.07,0-1.94-.87-1.94-1.94v-17.94c0-11.4,8-20.67,17.83-20.67,3.76,0,7.25,1.36,10.13,3.67.64-1.56,1.48-3.01,2.55-4.28,3.64-4.32,8.97-6.8,14.62-6.8,3.34,0,6.64.87,9.55,2.51,1.19.67,2.36,1.56,3.69,2.79l21.7,20.11c.75.69.83,1.85.19,2.64ZM133.59,152.12c-.16,0-.32-.02-.49-.06-1.17-.27-1.91-1.44-1.64-2.61l6.42-28.06c.27-1.17,1.44-1.91,2.61-1.64,1.17.27,1.91,1.44,1.64,2.61l-6.42,28.06c-.23,1.01-1.13,1.69-2.12,1.69ZM157.94,124.78c-.13.56-.48,1.05-.97,1.36-.35.22-.75.33-1.16.33-.16,0-.33-.02-.49-.05l-5.57-1.28-6.2,27.08c-.23,1.01-1.13,1.69-2.12,1.69-.16,0-.32-.02-.49-.06-1.17-.27-1.91-1.44-1.64-2.61l6.68-29.2h0s0,0,0,0l4.28-18.72c.27-1.17,1.44-1.91,2.61-1.64,1.17.27,1.91,1.44,1.64,2.61l-3.8,16.6,3.45.79,3.81-16.67c1.69-7.4-2.95-14.8-10.35-16.5-7.4-1.69-14.8,2.95-16.5,10.35l-3.81,16.67,3.45.79,3.8-16.6c.27-1.17,1.44-1.91,2.61-1.64,1.17.27,1.91,1.44,1.64,2.61l-10.96,47.92c-.23,1.01-1.13,1.69-2.12,1.69-.16,0-.32-.02-.49-.06-1.17-.27-1.91-1.44-1.64-2.61l6.2-27.08-5.58-1.28c-1.17-.27-1.91-1.44-1.64-2.61l4.3-18.79c2.23-9.74,11.97-15.86,21.71-13.63,9.74,2.23,15.86,11.97,13.63,21.71l-4.3,18.79Z"/>
  </g>
</svg>