<?xml version="1.0" encoding="UTF-8"?>
<svg id="Laag_1" data-name="Laag 1" xmlns="http://www.w3.org/2000/svg" viewBox="0 0 200 200">
  <defs>
    <style>
      .cls-1 {
        fill: #a495fb;
      }

      .cls-1, .cls-2 {
        stroke-width: 0px;
      }

      .cls-2 {
        fill: #fff;
      }
    </style>
  </defs>
  <rect class="cls-1" width="200" height="200"/>
  <path class="cls-2" d="M100,20c-44.18,0-80,35.82-80,80,0,13.73,3.46,26.64,9.56,37.93l19.21-15.8-2.01-2.44c-1.98-2.41-1.63-5.96.77-7.94,2.41-1.98,5.96-1.63,7.95.77l23.36,28.4c1.98,2.41,1.63,5.96-.77,7.94-1.05.86-2.32,1.29-3.58,1.29-1.63,0-3.25-.7-4.36-2.06l-2.65-3.22c-4.9-4.63-14.99,2.77-23.95,11.74.9.9,1.81,1.79,2.76,2.66,14.2,12.88,33.05,20.73,53.73,20.73,44.18,0,80-35.82,80-80S144.18,20,100,20ZM84.22,133c-.43.36-1.07.29-1.43-.14l-21.15-25.71c-.36-.43-.29-1.07.14-1.42l76.56-62.97c1.83-1.47,2.41-1.62,3.96.39,1.99,2.58,3.72,5.28,4.94,8.21.09.21.02.44-.15.58l-63.24,52.01c-1.2.99-1.37,2.76-.39,3.96.56.68,1.36,1.02,2.17,1.02.63,0,1.26-.21,1.78-.64l61.02-50.19c.3-.25.75-.07.82.31.46,2.78.56,5.65.28,8.53-.84,8.64-5,16.44-11.7,21.95l-53.63,44.11ZM133.82,149.46c-4.41,0-7.99-3.59-7.99-7.99,0-3.11,3.64-10.48,5.2-13.5.54-1.04,1.62-1.7,2.79-1.7s2.25.65,2.79,1.7c1.56,3.02,5.2,10.39,5.2,13.5,0,4.41-3.59,7.99-7.99,7.99ZM148.53,121.84c-4.82,0-8.75-3.92-8.75-8.75,0-3.48,4.17-11.91,5.96-15.37.54-1.04,1.62-1.7,2.79-1.7s2.25.65,2.79,1.7c1.79,3.46,5.96,11.89,5.96,15.37,0,4.82-3.92,8.75-8.75,8.75Z"/>
</svg>