<?xml version="1.0" encoding="UTF-8"?>
<svg id="Laag_1" data-name="Laag 1" xmlns="http://www.w3.org/2000/svg" viewBox="0 0 200 200">
  <defs>
    <style>
      .cls-1 {
        fill: #eeb6fd;
      }

      .cls-1, .cls-2 {
        stroke-width: 0px;
      }

      .cls-2 {
        fill: #fff;
      }
    </style>
  </defs>
  <rect class="cls-1" width="200" height="200"/>
  <g>
    <path class="cls-2" d="M62.61,96.71c4.83,0,8.77-3.93,8.77-8.77s-3.93-8.77-8.77-8.77-8.77,3.93-8.77,8.77,3.93,8.77,8.77,8.77Z"/>
    <path class="cls-2" d="M82.33,71.72c4.83,0,8.77-3.93,8.77-8.77s-3.93-8.77-8.77-8.77-8.77,3.93-8.77,8.77,3.93,8.77,8.77,8.77Z"/>
    <path class="cls-2" d="M100,20c-44.18,0-80,35.82-80,80s35.82,80,80,80,80-35.82,80-80S144.18,20,100,20ZM82.33,48.53c7.95,0,14.42,6.47,14.42,14.42s-6.47,14.43-14.42,14.43-14.43-6.47-14.43-14.43,6.47-14.42,14.43-14.42ZM62.61,73.52c7.95,0,14.42,6.47,14.42,14.42s-6.47,14.43-14.42,14.43-14.43-6.47-14.43-14.43,6.47-14.42,14.43-14.42ZM163.24,132.1c0,1.56-1.27,2.83-2.83,2.83s-2.83-1.27-2.83-2.83v-11.08H49.84c-1.56,0-2.83-1.27-2.83-2.83s1.27-2.83,2.83-2.83h107.74v-5.08H42.42v21.82c0,1.56-1.27,2.83-2.83,2.83s-2.83-1.27-2.83-2.83v-54.07c0-1.56,1.27-2.83,2.83-2.83s2.83,1.27,2.83,2.83v26.6h32.47l27.06-38.78c.75-1.08,2.14-1.49,3.35-1.01l47.88,18.84c5.54,2.18,9.46,7.19,9.98,12.76.05.5.07.99.07,1.48v34.19Z"/>
  </g>
</svg>