<?xml version="1.0" encoding="UTF-8"?>
<svg id="Laag_1" data-name="Laag 1" xmlns="http://www.w3.org/2000/svg" viewBox="0 0 200 200">
  <defs>
    <style>
      .cls-1 {
        fill: #654bfa;
      }

      .cls-1, .cls-2 {
        stroke-width: 0px;
      }

      .cls-2 {
        fill: #fff;
      }
    </style>
  </defs>
  <rect class="cls-1" width="200" height="200"/>
  <g>
    <path class="cls-2" d="M42.57,126.13c-6.14-12.07-9.38-25.57-9.38-39.2,0-16.84,4.79-32.94,13.72-46.76-16.5,14.65-26.9,36.03-26.9,59.83,0,15.03,4.15,29.09,11.36,41.1l11.21-14.97Z"/>
    <path class="cls-2" d="M119.6,173.35c-25.51,0-49.39-11.08-65.87-30.48l-18.43,4.18c14.55,19.97,38.11,32.95,64.7,32.95,12.51,0,24.35-2.88,34.9-8-5,.89-10.12,1.35-15.3,1.35Z"/>
    <path class="cls-2" d="M100,20c-11.48,0-22.4,2.42-32.27,6.78-1.47,1.27-2.9,2.6-4.29,3.99-15,15-23.26,34.95-23.26,56.16,0,13.22,3.31,26.31,9.58,37.86.65,1.2.55,2.67-.27,3.77l-7.31,9.77,12.1-2.74c.26-.06.52-.09.77-.09,1.04,0,2.05.47,2.72,1.3,15.17,18.79,37.71,29.56,61.83,29.56,12.51,0,24.57-2.87,35.44-8.31,15.37-14.58,24.95-35.19,24.95-58.05,0-44.18-35.82-80-80-80ZM97.95,102.04l-12.47,2.13c-.85.15-1.18,1.19-.57,1.8l8.88,8.88c.46.46.4,1.22-.12,1.61l-8.15,6c-.52.39-1.27.21-1.57-.36l-5.88-11.29c-.4-.76-1.49-.76-1.88,0l-5.88,11.29c-.3.58-1.05.75-1.57.37l-8.15-6c-.52-.39-.58-1.15-.12-1.61l8.88-8.88c.61-.61.28-1.65-.57-1.8l-12.47-2.13c-.64-.11-1.03-.76-.83-1.38l3.17-9.62c.2-.62.91-.91,1.49-.62l11.31,5.69c.77.39,1.66-.26,1.53-1.11l-1.97-12.53c-.1-.64.4-1.23,1.05-1.23h10.19c.65,0,1.15.58,1.05,1.23l-1.97,12.53c-.13.85.75,1.5,1.53,1.11l11.31-5.69c.58-.29,1.28,0,1.49.62l3.17,9.62c.2.62-.19,1.27-.83,1.38ZM121.59,135.41c0,.59-.48,1.06-1.06,1.06h-11.69c-.59,0-1.06-.48-1.06-1.06v-11.69c0-.59.48-1.06,1.06-1.06h11.69c.59,0,1.06.48,1.06,1.06v11.69ZM126.33,98.18c-4.13,5.57-5.45,8.77-5.45,13.18,0,1.4.12,2.57.37,3.67l.12.5c.15.67-.35,1.3-1.03,1.3h-10.86c-.46,0-.86-.29-1.01-.73l-.09-.28c-.48-1.43-.69-2.94-.69-4.88,0-6.19,1.6-10.65,6.12-17.06,4.69-6.7,6.2-11.06,6.2-17.93,0-2.12-.38-3.64-1.12-4.51-.4-.47-1.16-1.1-3.05-1.1s-2.65.63-3.05,1.1c-.75.88-1.12,2.39-1.12,4.51v8.21c0,.59-.48,1.06-1.06,1.06h-11.49c-.59,0-1.06-.48-1.06-1.06v-7.49c0-6.15,1.54-10.97,4.57-14.33,3.12-3.45,7.67-5.2,13.52-5.2s10.4,1.75,13.52,5.2c3.03,3.36,4.57,8.18,4.57,14.33,0,8.01-2.14,13.84-7.89,21.51ZM156.17,135.41c0,.59-.48,1.06-1.06,1.06h-11.69c-.59,0-1.06-.48-1.06-1.06v-11.69c0-.59.48-1.06,1.06-1.06h11.69c.59,0,1.06.48,1.06,1.06v11.69ZM156.38,89.44s0,.04,0,.06l-1.46,26.32c-.03.56-.5,1-1.06,1h-9.19c-.56,0-1.03-.44-1.06-1l-1.46-26.4s0-.04,0-.06v-30.34c0-.59.48-1.06,1.06-1.06h12.1c.59,0,1.06.48,1.06,1.06v30.42Z"/>
  </g>
</svg>